<svg xmlns="http://www.w3.org/2000/svg" width="192" height="192" fill="#A1ABB8" viewBox="0 0 256 256"><rect width="256" height="256" fill="none"></rect><line x1="120" y1="176" x2="88" y2="176" fill="none" stroke="#A1ABB8" stroke-linecap="round" stroke-linejoin="round" stroke-width="16"></line><line x1="104" y1="216" x2="104" y2="176" fill="none" stroke="#A1ABB8" stroke-linecap="round" stroke-linejoin="round" stroke-width="16"></line><line x1="36" y1="176" x2="36" y2="216" fill="none" stroke="#A1ABB8" stroke-linecap="round" stroke-linejoin="round" stroke-width="16"></line><line x1="64" y1="176" x2="64" y2="216" fill="none" stroke="#A1ABB8" stroke-linecap="round" stroke-linejoin="round" stroke-width="16"></line><line x1="36" y1="196" x2="64" y2="196" fill="none" stroke="#A1ABB8" stroke-linecap="round" stroke-linejoin="round" stroke-width="16"></line><polyline points="212 176 212 216 236 216" fill="none" stroke="#A1ABB8" stroke-linecap="round" stroke-linejoin="round" stroke-width="16"></polyline><polyline points="144 216 144 176 164 204 184 176 184 216" fill="none" stroke="#A1ABB8" stroke-linecap="round" stroke-linejoin="round" stroke-width="16"></polyline><path d="M48,136V40a8,8,0,0,1,8-8h96l56,56v48" fill="none" stroke="#A1ABB8" stroke-linecap="round" stroke-linejoin="round" stroke-width="16"></path><polyline points="152 32 152 88 208 88" fill="none" stroke="#A1ABB8" stroke-linecap="round" stroke-linejoin="round" stroke-width="16"></polyline></svg>